<svg xmlns="http://www.w3.org/2000/svg" width="32" height="32" viewBox="0 0 24 24" fill="none" aria-hidden="true">
  <path
    d="M14 18V6a2 2 0 0 0-2-2H4a2 2 0 0 0-2 2v11a1 1 0 0 0 1 1h2"
    stroke="#18181b"
    stroke-width="2"
    stroke-linecap="round"
    stroke-linejoin="round"
  />
  <path d="M15 18H9" stroke="#18181b" stroke-width="2" stroke-linecap="round" stroke-linejoin="round" />
  <path
    d="M19 18h2a1 1 0 0 0 1-1v-3.65a1 1 0 0 0-.22-.624l-3.48-4.35A1 1 0 0 0 17.52 8H14"
    stroke="#18181b"
    stroke-width="2"
    stroke-linecap="round"
    stroke-linejoin="round"
  />
  <circle cx="17" cy="18" r="2" stroke="#18181b" stroke-width="2" fill="none" />
  <circle cx="7" cy="18" r="2" stroke="#18181b" stroke-width="2" fill="none" />
</svg>
